<?xml version="1.0" encoding="utf-8"?>
<!-- Generator: Adobe Illustrator 28.3.0, SVG Export Plug-In . SVG Version: 6.00 Build 0)  -->
<svg version="1.1" id="图层_1" xmlns="http://www.w3.org/2000/svg" xmlns:xlink="http://www.w3.org/1999/xlink" x="0px" y="0px"
	 viewBox="0 0 742.7 215.4" style="enable-background:new 0 0 742.7 215.4;" xml:space="preserve">
<style type="text/css">
	.st0{fill:#0784FF;}
	.st1{fill:#3E3F40;}
</style>
<g>
	<ellipse class="st0" cx="149.5" cy="55.2" rx="17.7" ry="17.8"/>
	<path class="st0" d="M162,107.8c0,9.8,7.9,17.8,17.7,17.8s17.7-8,17.7-17.8c0-9.8-7.9-17.8-17.7-17.8S162,97.9,162,107.8z"/>
	<ellipse class="st0" cx="58.7" cy="107.7" rx="17.7" ry="17.8"/>
	<path class="st0" d="M154.9,143.4L154.9,143.4c-7.9-2.5-16.2,0.7-20.4,7.4l-0.2,0.3c-3.1,5.4-9.2,8.6-15.1,8.3
		c-7.6-0.4-10.9-2.3-13.8-6.1c-1.3-1.7-2.7-6.3-1.5-10.4c1.6-5.5,6.5-9.6,12.5-9.9c0.4,0,0.7,0,1,0c0.2,0,0.5,0.1,0.7,0.1
		c14,0.6,25.8-10.3,26.4-24.4c0.6-14-10.3-25.9-24.3-26.5c-0.8,0-1.6,0-2.5,0c-0.5,0-0.9,0-1.4,0c-7.6-0.3-12.9-6.2-12.6-13.8
		c0.1-1.8,0.3-3.6,1-5.2l0.2-0.5c0.4-0.9,0.6-1.3,0.9-2.3c2.9-9.4-2.3-19.4-11.6-22.3c-9.2-2.9-19.2,2.2-22.2,11.6
		c-2.9,9.1,2,19,11,22.2c1.5,0.5,2.4,0.7,3.7,0.9l0.8,0.1c7.2,0.7,12.9,6.6,12.6,13.9c-0.1,2.7-1,5.1-2.4,7.2
		c-2.3,3.7-3.7,8-3.9,12.6c-0.2,5.4,1.2,10.5,3.9,14.8c1.4,2,2.3,4.5,2.4,7.2c0.3,7.3-4.6,13.2-11.8,13.9h-0.1c-1,0-2.3,0.2-3.2,0.4
		c-9.8,2.2-15.6,11.8-13.4,21.4c2.2,9.6,11.8,15.4,21,13.3c4.9-1.1,8.8-4,11.3-7.9c4.1-7,12.7-9.8,20.7-7.2c4.4,1.4,7.5,3.4,9.6,7.1
		l0.2,0.4c1.9,3,5.4,6.1,9.7,7.4c9.6,2.9,19.1-2.4,22.1-11.5C169.5,156.2,163.9,146.3,154.9,143.4z"/>
	<circle class="st0" cx="63" cy="9.7" r="7"/>
	<circle class="st0" cx="175" cy="9.7" r="7"/>
	<circle class="st0" cx="119.2" cy="16.7" r="11"/>
	<circle class="st0" cx="42" cy="61.9" r="11"/>
	<circle class="st0" cx="196" cy="61.9" r="11"/>
	<circle class="st0" cx="175" cy="205.7" r="7"/>
	<circle class="st0" cx="63" cy="205.7" r="7"/>
	<circle class="st0" cx="196" cy="153.6" r="11"/>
	<circle class="st0" cx="42" cy="153.6" r="11"/>
	<circle class="st0" cx="7" cy="107.8" r="7"/>
	<circle class="st0" cx="231" cy="107.8" r="7"/>
	<circle class="st0" cx="118.8" cy="198.8" r="11"/>
	<g>
		<path class="st1" d="M386.8,46v8.7l-56.3,100.7h58.4v15.2h-80.8v-8.9L364.6,61h-51.8V46H386.8z"/>
		<path class="st1" d="M420.7,102.9h56V46h16.1v124.6h-16.1v-52.5h-56v52.5h-16.1V46h16.1V102.9z"/>
		<path class="st1" d="M533,170.5h-16.1V46H533V170.5z"/>
		<path class="st1" d="M594.4,46c15.6,0,43.4,6,43.4,41.5s-27.8,41.3-43.4,41.3h-21.3v41.8h-16.1V46H594.4z M592.5,114.1
			c7.9,0,29.9-1.2,29.9-26.6s-22-26.8-29.9-26.8h-19.3v53.4H592.5z"/>
		<path class="st1" d="M698.5,170.5c-28.8,0-43.7-22.4-43.7-48V44.2H671v76.6c0,10.7,2.4,18.9,7.2,24.5c4.8,5.6,11.2,8.7,20.2,8.7
			s15.3-3.2,20.1-8.7c4.8-5.6,7.2-13.7,7.2-24.5V44.2H742v78.3C742,148.2,727.2,170.5,698.5,170.5z"/>
	</g>
</g>
</svg>
